<svg width="44" height="44" viewBox="0 0 44 44" fill="none" xmlns="http://www.w3.org/2000/svg">
<rect width="44" height="44" rx="22" fill="#6E41E2"/>
<path fill-rule="evenodd" clip-rule="evenodd" d="M16.335 26.0461C15.8881 26.4931 15.8881 27.2177 16.335 27.6646C16.7819 28.1116 17.5066 28.1116 17.9535 27.6646L21.9998 23.6183L26.0463 27.6648C26.4933 28.1117 27.2179 28.1117 27.6648 27.6648C28.1118 27.2178 28.1118 26.4932 27.6648 26.0463L23.6183 21.9998L27.6645 17.9536C28.1114 17.5067 28.1114 16.7821 27.6645 16.3351C27.2176 15.8882 26.4929 15.8882 26.046 16.3351L21.9998 20.3813L17.9538 16.3353C17.5069 15.8884 16.7823 15.8884 16.3353 16.3353C15.8884 16.7822 15.8884 17.5069 16.3353 17.9538L20.3813 21.9998L16.335 26.0461Z" fill="white"/>
</svg>
