<svg width="97" height="96" viewBox="0 0 97 96" fill="none" xmlns="http://www.w3.org/2000/svg">
<circle opacity="0.12" cx="48.5" cy="48.0001" r="48" fill="#27AE60"/>
<path d="M36.9847 49.0672C36.3679 48.5571 35.5642 48.2802 34.7347 48.2923C33.9053 48.3044 33.1116 48.6045 32.5126 49.1324C31.9137 49.6603 31.554 50.3769 31.5056 51.1385C31.4572 51.9002 31.7237 52.6505 32.2517 53.2389L39.5484 60.2825C39.8539 60.5772 40.221 60.8121 40.6276 60.9732C41.0343 61.1342 41.4721 61.218 41.9149 61.2196C42.3553 61.2219 42.7917 61.1429 43.1982 60.9871C43.6047 60.8313 43.9731 60.602 44.2814 60.3127L66.5659 39.1519C66.8681 38.866 67.106 38.5283 67.2662 38.1578C67.4265 37.7874 67.5058 37.3916 67.4997 36.993C67.4936 36.5944 67.4022 36.2008 67.2307 35.8347C67.0592 35.4686 66.811 35.1371 66.5002 34.8592C66.1894 34.5813 65.8222 34.3625 65.4194 34.2151C65.0167 34.0678 64.5863 33.9948 64.1529 34.0004C63.7195 34.006 63.2916 34.0901 62.8935 34.2478C62.4955 34.4056 62.1351 34.6339 61.8329 34.9197L41.9477 53.8435L36.9847 49.0672Z" fill="#27AE60"/>
</svg>
